<svg preserveAspectRatio="xMidYMid meet" viewBox="0 0 24 24" fill="none" xmlns="http://www.w3.org/2000/svg">
<g id="Frame 1000005947">
<path id="Fill-3" fill-rule="evenodd" clip-rule="evenodd" d="M9.94828 20.3887C10.1978 19.2659 10.878 16.2053 11.5444 13.2C13.2309 13.4246 15.8103 14.155 15.8103 16.5218C15.8103 19.6861 12.9302 20.5098 9.94828 20.3887ZM16.6938 11.7195C19.0181 10.3496 20.5 8.07061 20.5 5.28601C20.5 0.59867 16.0187 0 14.4719 0C8.32564 0 4.2664 4.19949 3.94022 4.57827L5.82602 7.18346C6.14003 6.85378 9.47517 3.01739 14.0372 3.01739C15.6155 3.01739 17.1005 3.73802 17.1005 5.79042C17.1005 7.16059 16.1527 9.15229 12.3598 10.2936C12.7745 8.36555 13.1126 6.78942 13.2295 6.23239L9.74948 6.23458C9.4756 7.49364 7.61401 16.1496 6.78022 20.0272C5.09816 19.4613 4.18134 18.713 4.18134 18.713L3.5 21.9289C3.5 21.9289 6.03439 23.7058 9.56921 23.967C13.8706 24.285 19.4042 22.3365 19.4042 16.6562C19.4042 14.1142 18.1489 12.6096 16.6938 11.7195Z" fill="var(--fill-0, #19191E)"/>
</g>
</svg>
