<svg preserveAspectRatio="xMidYMid meet" viewBox="0 0 24 18" fill="none" xmlns="http://www.w3.org/2000/svg">
<g id="bynder 1" clip-path="url(#clip0_0_59)">
<path id="Vector" d="M23.9973 5.68369C23.9973 7.12329 23.4523 8.46575 22.5873 9.44458L15.4624 16.5504C14.5775 17.4496 13.3625 18 12.01 18H12.0075C10.655 18 9.42004 17.4446 8.53506 16.5455L8.04007 16.0598L10.4575 13.6563L10.97 14.1644C11.23 14.4359 11.59 14.6052 11.9975 14.6077C12.4025 14.6052 12.7825 14.4533 13.04 14.1793L19.8774 7.37733C20.2549 6.95392 20.4524 6.43836 20.4524 5.86052C20.4574 4.58032 19.4324 3.55168 18.1474 3.5467C17.5599 3.5467 17.0474 3.74595 16.6174 4.12453L6.33009 14.3587L1.40768 9.4396C0.545191 8.46077 0.00269954 7.1208 0.00269954 5.68369C0.00269954 2.54296 2.56766 0.00249091 5.7226 0.00249091C7.23508 0.00249091 8.62006 0.570361 9.63754 1.52677L10.3375 2.22416L7.91007 4.6401C7.91007 4.6401 7.52007 4.24159 7.38508 4.11955C6.95758 3.74346 6.44509 3.54919 5.8626 3.5467C4.57762 3.5467 3.54514 4.56538 3.54264 5.84309C3.54264 6.4259 3.74014 6.94645 4.12013 7.37484L6.31509 9.55666L13.9825 1.93773C15.03 0.75218 16.5674 2.4916e-07 18.2799 2.4916e-07C21.4373 2.4916e-07 23.9973 2.54296 23.9973 5.68369Z" fill="var(--fill-0, #19191E)"/>
</g>
<defs>
<clipPath id="clip0_0_59">
<rect width="24" height="18" fill="white"/>
</clipPath>
</defs>
</svg>
