<svg preserveAspectRatio="xMidYMid meet" viewBox="0 0 24 18" fill="none" xmlns="http://www.w3.org/2000/svg">
<path id="Vector" d="M12.2517 0.11671C-6.30559 1.68697 -0.108272 10.8217 7.0168 14.8374C14.2633 18.9222 17.6361 19.6717 21.8284 13.3404C21.8262 13.3404 30.809 -1.45355 12.2517 0.11671ZM7.61074 8.82225C7.61074 8.2423 8.1028 7.76704 8.70324 7.76704H14.1939C14.7943 7.76704 15.2864 8.2423 15.2864 8.82225C15.2864 9.4022 14.7943 9.87747 14.1939 9.87747H8.70324C8.1028 9.87956 7.61074 9.4043 7.61074 8.82225ZM17.6296 12.8945H10.2379C9.6375 12.8945 9.14544 12.4192 9.14544 11.8393C9.14544 11.2593 9.6375 10.784 10.2379 10.784H17.6296C18.2301 10.784 18.7221 11.2593 18.7221 11.8393C18.7221 12.4192 18.2301 12.8945 17.6296 12.8945ZM17.6296 6.86256H6.90842C6.30798 6.86256 5.81592 6.3873 5.81592 5.80735C5.81592 5.2274 6.30798 4.75213 6.90842 4.75213H17.6296C18.2301 4.75213 18.7221 5.2274 18.7221 5.80735C18.7221 6.3873 18.2301 6.86256 17.6296 6.86256Z" fill="var(--fill-0, #19191E)"/>
</svg>
